Coordinates
version=1
nRows=16
nColumns=36
inDegrees=yes

Units are S.I. units (second, meters, Newtons, ...)
If the header above contains a line with 'inDegrees', this indicates whether rotational values are in degrees (yes) or radians (no).

endheader
time	pelvis_tilt	pelvis_list	pelvis_rotation	pelvis_tx	pelvis_ty	pelvis_tz	hip_flexion_r	hip_adduction_r	hip_rotation_r	knee_angle_r	knee_angle_r_beta	ankle_angle_r	subtalar_angle_r	mtp_angle_r	hip_flexion_l	hip_adduction_l	hip_rotation_l	knee_angle_l	knee_angle_l_beta	ankle_angle_l	subtalar_angle_l	mtp_angle_l	lumbar_extension	lumbar_bending	lumbar_rotation	arm_flex_r	arm_add_r	arm_rot_r	elbow_flex_r	pro_sup_r	arm_flex_l	arm_add_l	arm_rot_l	elbow_flex_l	pro_sup_l
      1.78000000	    -25.40218745	      0.77165031	     -1.72290914	     -0.31480130	      0.66825728	     -0.61175259	     81.18842558	     -2.78488716	      7.15568578	     88.73816266	      1.54877311	     28.50023918	    -22.24717427	     -7.48628887	     79.55706053	    -10.65395299	      3.86694089	     90.17505252	      1.57385157	     37.53947662	     -7.48995747	     -7.48628887	     -8.25218834	      0.46662302	     -3.39159866	     82.89460446	     -9.49405598	     12.60698313	     46.55189638	     84.49971690	     87.10221652	    -25.29884429	     19.12750365	     50.60957400	     84.65656358
      1.79000000	    -26.51568265	      0.83467792	     -1.82851450	     -0.31264855	      0.67737425	     -0.61288756	     80.68662123	     -2.93111322	      6.70406972	     86.67578689	      1.51277786	     27.86794001	    -22.65339273	     -7.48637582	     78.99719465	    -10.62414773	      3.51397442	     87.96941133	      1.53535587	     36.72410449	     -7.83990292	     -7.48637582	     -4.98860145	      0.38135585	     -3.18438225	     87.79320124	     -9.23484740	     12.77670638	     47.84400718	     84.54402864	     91.76773579	    -24.60140655	     19.22715274	     52.31481170	     84.71182966
      1.80000000	    -26.47641912	      1.03707046	     -2.00783251	     -0.31005352	      0.68899394	     -0.61296377	     78.91869220	     -2.96649007	      6.55465245	     84.45230709	      1.47397082	     25.55488835	    -24.91288528	     -7.48739853	     77.06665900	    -10.44639303	      3.06807615	     85.42392152	      1.49092869	     34.36281882	     -9.88189769	     -7.48739853	     -3.53760498	     -0.14194470	     -2.80624887	     93.44980996	    -11.61803234	     19.70451828	     49.96058129	     84.93205389	     98.29307683	    -25.60552088	     26.77048375	     54.31418816	     85.25495938
      1.81000000	    -26.66820061	      1.19313949	     -2.10267319	     -0.30709270	      0.70050268	     -0.61213478	     77.39404410	     -3.11761181	      6.29534355	     82.20582118	      1.43476224	     24.00890261	    -25.77999196	     -7.48831148	     75.40189900	    -10.24845071	      2.66014767	     82.84060585	      1.44584133	     32.21829892	    -10.81601244	     -7.48831148	     -1.94086842	     -0.44080676	     -2.42173720	     99.29626449	    -12.52548542	     23.24866197	     50.90201578	     84.71471656	    104.58396705	    -25.13805561	     30.48335250	     54.59649630	     84.93211528
      1.82000000	    -26.77131712	      1.34771451	     -2.11243556	     -0.30428277	      0.71310334	     -0.61120755	     75.76646883	     -3.36487270	      5.97465499	     79.84674469	      1.39358859	     22.36514547	    -26.37540342	     -7.48927324	     73.64391035	    -10.01110826	      2.23603983	     80.17807592	      1.39937141	     29.84594761	    -11.35328204	     -7.48927324	     -0.81015057	     -0.72707158	     -1.94565714	    105.91369634	    -12.83596570	     26.43094321	     51.03816580	     84.56791467	    111.63921343	    -23.86949589	     34.02745136	     53.84733458	     84.40829481
      1.83000000	    -27.82035231	      1.39184091	     -2.00722927	     -0.30114707	      0.72572924	     -0.61084135	     75.07577554	     -3.72607804	      5.32600846	     77.33534678	      1.34975643	     20.83693306	    -26.00633139	     -7.48936447	     72.91979814	     -9.90911129	      1.76750048	     77.39734321	      1.35083847	     27.55192581	    -10.89036127	     -7.48936447	      1.33219308	     -0.65727399	     -1.57769326	    111.78226971	    -11.92862142	     26.12044578	     51.51903635	     84.57294496	    117.12295294	    -22.33286053	     33.62384353	     54.13944362	     84.34438985
      1.84000000	    -26.84291868	      1.51095658	     -1.88039452	     -0.29801857	      0.74334315	     -0.61099651	     72.18014870	     -4.06005177	      5.00276654	     74.58378696	      1.30173265	     18.52061202	    -27.17923503	     -7.49047810	     69.94989619	     -9.45716441	      1.37885709	     74.33103751	      1.29732134	     24.46165785	    -12.30425241	     -7.49047810	      0.18180400	     -1.01675324	     -1.35935238	    120.89763894	    -12.54354796	     32.49205850	     48.93422799	     85.16685147	    127.11037748	    -20.94038097	     41.20660902	     49.80143802	     84.18309520
      1.85000000	    -26.67637486	      1.49587231	     -1.75799210	     -0.29331530	      0.76192293	     -0.61097413	     69.84283319	     -4.35905290	      4.40973362	     71.42051340	      1.24652311	     16.56976372	    -27.33868719	     -7.49122219	     67.62182955	     -9.24229950	      0.93892083	     70.86227985	      1.23678010	     21.41822059	    -12.57055137	     -7.49122219	      0.31361042	     -0.97213356	     -0.74597208	    128.27388531	    -12.36630275	     35.61310722	     46.62130806	     85.44735534	    133.92821645	    -19.67389424	     44.44686604	     46.97299087	     83.94966122
      1.86000000	    -26.34990230	      1.40919659	     -1.65639076	     -0.28802919	      0.78221590	     -0.61057281	     67.08521029	     -4.69698380	      3.53163326	     67.70942593	      1.18175242	     14.58223129	    -27.26954595	     -7.49205106	     64.87720274	     -9.16691865	      0.40001305	     66.90507165	      1.16771379	     17.94079918	    -12.78505787	     -7.49205106	      0.36230318	     -0.80238666	      0.40668765	    135.40432325	    -12.38540122	     39.46316555	     44.03050479	     85.85294017	    139.71661771	    -18.75055481	     47.55834359	     44.34499234	     83.89177260
      1.87000000	    -25.76838141	      1.45403253	     -1.57499559	     -0.28303325	      0.80313018	     -0.60974890	     63.98016921	     -5.12637895	      2.55224971	     63.52855135	      1.10878239	     12.17237172	    -27.01622079	     -7.49283350	     61.64558212	     -9.10279073	     -0.39760600	     62.48820083	      1.09062485	     14.23967537	    -12.69404353	     -7.49283350	      0.10288500	     -0.82820990	      1.64472583	    142.38483033	    -11.98007693	     43.51868526	     40.52108873	     86.25781271	    145.14010835	    -17.61884262	     50.44261000	     40.84114503	     84.20902729
      1.88000000	    -24.90790947	      1.58332735	     -1.45017760	     -0.27728954	      0.82485884	     -0.60931828	     60.39122383	     -5.67229375	      1.42130301	     58.87048521	      1.02748380	      9.17859532	    -26.65902074	     -7.49355424	     57.84958867	     -8.93295352	     -1.34969759	     57.55593909	      1.00454064	     10.18342932	    -12.49677266	     -7.49355424	     -0.39508369	     -0.98369569	      2.58940842	    148.82900747	    -11.18663124	     47.84017566	     36.36523593	     86.49881656	    150.18629408	    -16.27817749	     53.79766450	     36.40623668	     84.78972336
      1.89000000	    -23.73855757	      1.73182341	     -1.35234701	     -0.26939674	      0.84902137	     -0.60979369	     56.08104926	     -6.23767109	      0.15426585	     53.60208193	      0.93553282	      5.66862637	    -26.02089320	     -7.49415700	     53.30336752	     -8.67720648	     -2.39161487	     51.93131216	      0.90637238	      5.69558180	    -12.21488623	     -7.49415700	     -0.91146057	     -1.16977938	      3.32016524	    153.92678357	    -10.26292546	     51.80767452	     32.47717186	     86.56640404	    154.04129116	    -14.88626844	     57.07936653	     32.03775931	     85.32350024
      1.90000000	    -22.16061668	      1.80685932	     -1.26254844	     -0.25961306	      0.87718208	     -0.61089176	     50.76663203	     -6.78714791	     -1.43605701	     47.40049059	      0.82729463	      1.76073997	    -24.69289852	     -7.49506815	     47.79726495	     -8.31132401	     -3.36412394	     45.34395504	      0.79140131	      0.50375091	    -11.95128888	     -7.49506815	     -1.51058824	     -1.21295253	      4.14794683	    157.74738954	     -9.68587712	     56.61689528	     29.67387469	     85.99743631	    156.49849536	    -13.90296042	     60.90696479	     28.76870112	     85.49889862
      1.91000000	    -20.11838075	      1.91941399	     -1.24891905	     -0.24929519	      0.90841955	     -0.61120927	     44.48136001	     -7.28282674	     -3.34176771	     40.22293774	      0.70202270	     -2.28465186	    -22.20281777	     -7.49531137	     41.23755894	     -7.85037914	     -4.52070575	     37.65390638	      0.65718464	     -4.95151633	    -10.82996316	     -7.49531137	     -2.28983392	     -1.29590943	      4.90752888	    159.91711286	     -9.08254492	     59.42589917	     27.38417441	     86.32398884	    157.65599152	    -12.83463035	     63.33915951	     25.43880086	     86.24129351
      1.92000000	    -17.87037464	      1.96170630	     -1.27283286	     -0.23923159	      0.93888764	     -0.60995514	     37.70513188	     -7.54914559	     -5.61358580	     32.38627698	      0.56524717	     -6.55964716	    -18.79419108	     -7.49515654	     34.16320451	     -7.37246246	     -5.71207293	     29.17721994	      0.50923855	    -10.57175986	     -8.72788805	     -7.49515654	     -3.12746497	     -1.27484996	      5.44293623	    161.16124081	     -8.59417315	     61.37543006	     25.48954771	     87.33012608	    158.15294476	    -12.24273714	     65.34328728	     22.65881827	     87.49395809
      1.93000000	    -15.85945864	      1.81935650	     -1.27262107	     -0.22947830	      0.96502233	     -0.60784888	     31.31901397	     -7.49808161	     -8.39730873	     24.68094296	      0.43076372	    -10.88991893	    -14.56308511	     -7.49545468	     27.55733339	     -7.06317378	     -6.94620301	     20.74966060	      0.36214990	    -15.94559122	     -5.61374056	     -7.49545468	     -3.56012047	     -1.06660165	      5.76966513	    161.87479405	     -8.59087528	     63.69096115	     24.01676162	     87.36912736	    158.32563089	    -12.04878649	     67.70628198	     20.06823707	     87.87025031
